<svg xmlns="http://www.w3.org/2000/svg" width="1000" height="600" viewBox="0 0 1000 600"><title>Deterministic sensitivity scales</title><rect width="100%" height="100%" fill="white"/><style>text{font-family:Arial,Helvetica,sans-serif;fill:#171717}.title{font-size:21px;font-weight:700}.label{font-size:14px}.small{font-size:12px}.grid{stroke:#d8d8d8;stroke-width:1}.axis{stroke:#171717;stroke-width:1.4}</style><text x="500" y="34" text-anchor="middle" class="title">Fit-domain convention dominates reconstruction sensitivity</text><line x1="115.0" y1="490.0" x2="950.0" y2="490.0" class="axis"/><line x1="115.0" y1="82.0" x2="115.0" y2="490.0" class="axis"/><line x1="115.0" y1="490.00" x2="950.0" y2="490.00" class="grid"/><text x="103" y="495.00" text-anchor="end" class="label">0.5</text><line x1="115.0" y1="388.00" x2="950.0" y2="388.00" class="grid"/><text x="103" y="393.00" text-anchor="end" class="label">1</text><line x1="115.0" y1="286.00" x2="950.0" y2="286.00" class="grid"/><text x="103" y="291.00" text-anchor="end" class="label">2</text><line x1="115.0" y1="151.16" x2="950.0" y2="151.16" class="grid"/><text x="103" y="156.16" text-anchor="end" class="label">5</text><text x="115.00" y="525" text-anchor="middle" class="small">Calibration corners</text><text x="393.33" y="525" text-anchor="middle" class="small">Reconstruction, fixed</text><text x="671.67" y="525" text-anchor="middle" class="small">Reconstruction + membership</text><text x="950.00" y="525" text-anchor="middle" class="small">Fit domain + weighting</text><polyline points="115.00,405.03 393.33,441.67 671.67,355.02 950.00,131.54" fill="none" stroke="black" stroke-width="1.7"/><circle cx="115.00" cy="405.03" r="5.2"/><circle cx="393.33" cy="441.67" r="5.2"/><circle cx="671.67" cy="355.02" r="5.2"/><circle cx="950.00" cy="131.54" r="5.2"/><polyline points="115.00,445.04 393.33,418.13 671.67,288.90 950.00,138.78" fill="none" stroke="black" stroke-width="1.7" stroke-dasharray="8 5"/><rect x="110.00" y="440.04" width="10" height="10" fill="white" stroke="black" stroke-width="1.5"/><rect x="388.33" y="413.13" width="10" height="10" fill="white" stroke="black" stroke-width="1.5"/><rect x="666.67" y="283.90" width="10" height="10" fill="white" stroke="black" stroke-width="1.5"/><rect x="945.00" y="133.78" width="10" height="10" fill="white" stroke="black" stroke-width="1.5"/><circle cx="745" cy="58" r="5.2"/><text x="758" y="62" class="small">x = 0.226</text><rect x="841" y="53" width="10" height="10" fill="white" stroke="black" stroke-width="1.5"/><text x="857" y="62" class="small">x = 0.310</text><text transform="translate(28 286) rotate(-90)" text-anchor="middle" class="label">Maximum absolute intercept displacement (meV)</text></svg>
