<svg xmlns="http://www.w3.org/2000/svg" width="1000" height="600" viewBox="0 0 1000 600"><title>Residual compatibility diagnostics</title><rect width="100%" height="100%" fill="white"/><style>text{font-family:Arial,Helvetica,sans-serif;fill:#171717}.title{font-size:21px;font-weight:700}.label{font-size:14px}.small{font-size:12px}.grid{stroke:#d8d8d8;stroke-width:1}.axis{stroke:#171717;stroke-width:1.4}</style><text x="500" y="34" text-anchor="middle" class="title">Several declared models do not track the reconstructed line at its resolution</text><line x1="115.0" y1="490.0" x2="950.0" y2="490.0" class="axis"/><line x1="115.0" y1="82.0" x2="115.0" y2="490.0" class="axis"/><line x1="115.0" y1="490.00" x2="950.0" y2="490.00" class="grid"/><text x="103" y="495.00" text-anchor="end" class="label">0.5</text><line x1="115.0" y1="395.60" x2="950.0" y2="395.60" class="grid"/><text x="103" y="400.60" text-anchor="end" class="label">1</text><line x1="115.0" y1="301.20" x2="950.0" y2="301.20" class="grid"/><text x="103" y="306.20" text-anchor="end" class="label">2</text><line x1="115.0" y1="176.40" x2="950.0" y2="176.40" class="grid"/><text x="103" y="181.40" text-anchor="end" class="label">5</text><line x1="115.0" y1="82.00" x2="950.0" y2="82.00" class="grid"/><text x="103" y="87.00" text-anchor="end" class="label">10</text><line x1="115.0" y1="395.60" x2="950.0" y2="395.60" stroke="black" stroke-width="1.6" stroke-dasharray="7 5"/><circle cx="107.00" cy="446.15" r="5.2"/><circle cx="274.00" cy="159.31" r="5.2"/><circle cx="441.00" cy="272.72" r="5.2"/><circle cx="608.00" cy="422.63" r="5.2"/><circle cx="775.00" cy="429.06" r="5.2"/><circle cx="942.00" cy="149.85" r="5.2"/><rect x="118.00" y="428.92" width="10" height="10" fill="white" stroke="black" stroke-width="1.5"/><rect x="285.00" y="174.69" width="10" height="10" fill="white" stroke="black" stroke-width="1.5"/><rect x="452.00" y="259.33" width="10" height="10" fill="white" stroke="black" stroke-width="1.5"/><rect x="619.00" y="335.81" width="10" height="10" fill="white" stroke="black" stroke-width="1.5"/><rect x="786.00" y="414.18" width="10" height="10" fill="white" stroke="black" stroke-width="1.5"/><rect x="953.00" y="113.27" width="10" height="10" fill="white" stroke="black" stroke-width="1.5"/><text x="115.00" y="527" text-anchor="middle" class="small">free p</text><text x="282.00" y="527" text-anchor="middle" class="small">p = 0.5</text><text x="449.00" y="527" text-anchor="middle" class="small">p = 0.7</text><text x="616.00" y="527" text-anchor="middle" class="small">source-panel p</text><text x="783.00" y="527" text-anchor="middle" class="small">p = 1</text><text x="950.00" y="527" text-anchor="middle" class="small">Chu Kane-region</text><circle cx="724" cy="58" r="5.2"/><text x="737" y="62" class="small">x = 0.226</text><rect x="820" y="53" width="10" height="10" fill="white" stroke="black" stroke-width="1.5"/><text x="836" y="62" class="small">x = 0.310</text><line x1="724" y1="74" x2="750" y2="74" stroke="black" stroke-width="1.6" stroke-dasharray="7 5"/><text x="758" y="78" class="small">RMS = one line half-width</text><text transform="translate(28 286) rotate(-90)" text-anchor="middle" class="label">RMS residual / reconstructed line half-width</text></svg>
