<svg xmlns="http://www.w3.org/2000/svg" width="1050" height="670" viewBox="0 0 1050 670"><title>Material-model residual intervals</title><rect width="100%" height="100%" fill="white"/><style>text{font-family:Arial,sans-serif;fill:#111}.grid{stroke:#ddd}.axis{stroke:#111;stroke-width:1.4}.small{font-size:12px}.label{font-size:15px}.title{font-size:20px;font-weight:700}.panel{font-size:17px;font-weight:700}</style><text x="35" y="34" class="title">Figure 3. Material-model residual intervals from the observation ensemble</text><line x1="475" y1="58" x2="515" y2="58" stroke="#111" stroke-width="3"/><text x="523" y="62" class="small">fitted-model envelope</text><line x1="705" y1="58" x2="745" y2="58" stroke="#999" stroke-width="7"/><text x="753" y="62" class="small">400-4000 cm-1 thresholds</text><line x1="475" y1="82" x2="515" y2="82" stroke="#111" stroke-width="3"/><text x="523" y="86" class="small">x=0.226</text><line x1="620" y1="82" x2="660" y2="82" stroke="#111" stroke-width="3" stroke-dasharray="5 4"/><text x="668" y="86" class="small">x=0.310</text><line x1="90" y1="545.53" x2="1015" y2="545.53" class="grid"/><text x="76" y="550.53" text-anchor="end" class="label">-30</text><line x1="90" y1="472.11" x2="1015" y2="472.11" class="grid"/><text x="76" y="477.11" text-anchor="end" class="label">-15</text><line x1="90" y1="398.68" x2="1015" y2="398.68" class="grid"/><text x="76" y="403.68" text-anchor="end" class="label">0</text><line x1="90" y1="325.26" x2="1015" y2="325.26" class="grid"/><text x="76" y="330.26" text-anchor="end" class="label">15</text><line x1="90" y1="251.84" x2="1015" y2="251.84" class="grid"/><text x="76" y="256.84" text-anchor="end" class="label">30</text><line x1="90" y1="178.42" x2="1015" y2="178.42" class="grid"/><text x="76" y="183.42" text-anchor="end" class="label">45</text><line x1="90" y1="105.00" x2="1015" y2="105.00" class="grid"/><text x="76" y="110.00" text-anchor="end" class="label">60</text><line x1="90" y1="398.68" x2="1015" y2="398.68" stroke="#111" stroke-width="1.8"/><line x1="90" y1="105" x2="90" y2="570" class="axis"/><text transform="translate(27 337) rotate(-90)" text-anchor="middle" class="label">Observation edge minus model prediction (meV)</text><text x="205.62" y="618" text-anchor="middle" class="label">Hansen</text><line x1="187.62" y1="434.13" x2="187.62" y2="131.46" stroke="#999" stroke-width="7" stroke-linecap="round" stroke-dasharray=""/><line x1="187.62" y1="444.11" x2="187.62" y2="412.71" stroke="#111" stroke-width="3" stroke-linecap="round" stroke-dasharray=""/><line x1="223.62" y1="457.47" x2="223.62" y2="255.48" stroke="#999" stroke-width="7" stroke-linecap="round" stroke-dasharray="5 4"/><line x1="223.62" y1="469.98" x2="223.62" y2="436.55" stroke="#111" stroke-width="3" stroke-linecap="round" stroke-dasharray="5 4"/><text x="436.88" y="618" text-anchor="middle" class="label">Seiler 1990</text><line x1="418.88" y1="432.89" x2="418.88" y2="130.21" stroke="#999" stroke-width="7" stroke-linecap="round" stroke-dasharray=""/><line x1="418.88" y1="442.86" x2="418.88" y2="411.47" stroke="#111" stroke-width="3" stroke-linecap="round" stroke-dasharray=""/><line x1="454.88" y1="456.60" x2="454.88" y2="254.62" stroke="#999" stroke-width="7" stroke-linecap="round" stroke-dasharray="5 4"/><line x1="454.88" y1="469.11" x2="454.88" y2="435.68" stroke="#111" stroke-width="3" stroke-linecap="round" stroke-dasharray="5 4"/><text x="668.12" y="618" text-anchor="middle" class="label">Laurenti</text><line x1="650.12" y1="437.32" x2="650.12" y2="134.64" stroke="#999" stroke-width="7" stroke-linecap="round" stroke-dasharray=""/><line x1="650.12" y1="447.30" x2="650.12" y2="415.90" stroke="#111" stroke-width="3" stroke-linecap="round" stroke-dasharray=""/><line x1="686.12" y1="518.77" x2="686.12" y2="316.78" stroke="#999" stroke-width="7" stroke-linecap="round" stroke-dasharray="5 4"/><line x1="686.12" y1="531.28" x2="686.12" y2="497.85" stroke="#111" stroke-width="3" stroke-linecap="round" stroke-dasharray="5 4"/><text x="899.38" y="618" text-anchor="middle" class="label">Provisional Pade</text><line x1="881.38" y1="478.14" x2="881.38" y2="175.46" stroke="#999" stroke-width="7" stroke-linecap="round" stroke-dasharray=""/><line x1="881.38" y1="488.12" x2="881.38" y2="456.72" stroke="#111" stroke-width="3" stroke-linecap="round" stroke-dasharray=""/><line x1="917.38" y1="487.99" x2="917.38" y2="286.00" stroke="#999" stroke-width="7" stroke-linecap="round" stroke-dasharray="5 4"/><line x1="917.38" y1="500.50" x2="917.38" y2="467.06" stroke="#111" stroke-width="3" stroke-linecap="round" stroke-dasharray="5 4"/><text x="552" y="652" text-anchor="middle" class="small">Intervals are observation-definition sensitivity, not statistical confidence intervals.</text></svg>
