<svg xmlns="http://www.w3.org/2000/svg" width="1180" height="690" viewBox="0 0 1180 690"><title>Extracted edge by observation definition</title><rect width="100%" height="100%" fill="white"/><style>text{font-family:Arial,sans-serif;fill:#111}.grid{stroke:#ddd}.axis{stroke:#111;stroke-width:1.4}.small{font-size:12px}.label{font-size:15px}.title{font-size:20px;font-weight:700}.panel{font-size:17px;font-weight:700}</style><text x="35" y="34" class="title">Figure 2. Extracted edge depends on observation definition</text><circle cx="52" cy="58" r="5.2" fill="white" stroke="#111" stroke-width="1.8"/><text x="65" y="62" class="small">boundary-limited fit</text><text x="168" y="99.00" text-anchor="end" class="small">fractional p free</text><text x="168" y="139.00" text-anchor="end" class="small">fractional p=0.5</text><text x="168" y="179.00" text-anchor="end" class="small">fractional p=0.7</text><text x="168" y="219.00" text-anchor="end" class="small">fractional p=0.872</text><text x="168" y="259.00" text-anchor="end" class="small">fractional p=1</text><text x="168" y="299.00" text-anchor="end" class="small">Chu 1994 Kane</text><text x="168" y="339.00" text-anchor="end" class="small">400 cm-1</text><line x1="35" y1="315.00" x2="1145" y2="315.00" stroke="#999"/><text x="168" y="379.00" text-anchor="end" class="small">600 cm-1</text><text x="168" y="419.00" text-anchor="end" class="small">800 cm-1</text><text x="168" y="459.00" text-anchor="end" class="small">1000 cm-1</text><text x="168" y="499.00" text-anchor="end" class="small">2000 cm-1</text><text x="168" y="539.00" text-anchor="end" class="small">3000 cm-1</text><text x="168" y="579.00" text-anchor="end" class="small">4000 cm-1</text><text x="168" y="619.00" text-anchor="end" class="small">5000 cm-1</text><text x="390.0" y="58" text-anchor="middle" class="panel">x=0.226, 300 K</text><line x1="180.00" y1="75" x2="180.00" y2="635" class="grid"/><text x="180.00" y="666" text-anchor="middle" class="small">178</text><line x1="285.00" y1="75" x2="285.00" y2="635" class="grid"/><text x="285.00" y="666" text-anchor="middle" class="small">202</text><line x1="390.00" y1="75" x2="390.00" y2="635" class="grid"/><text x="390.00" y="666" text-anchor="middle" class="small">226</text><line x1="495.00" y1="75" x2="495.00" y2="635" class="grid"/><text x="495.00" y="666" text-anchor="middle" class="small">251</text><line x1="600.00" y1="75" x2="600.00" y2="635" class="grid"/><text x="600.00" y="666" text-anchor="middle" class="small">275</text><line x1="180" y1="635" x2="600" y2="635" class="axis"/><circle cx="196.07" cy="95.00" r="4.5" fill="#111"/><circle cx="221.13" cy="135.00" r="5.2" fill="white" stroke="#111" stroke-width="1.8"/><circle cx="215.42" cy="175.00" r="4.5" fill="#111"/><circle cx="204.64" cy="215.00" r="4.5" fill="#111"/><circle cx="193.36" cy="255.00" r="4.5" fill="#111"/><circle cx="221.13" cy="295.00" r="5.2" fill="white" stroke="#111" stroke-width="1.8"/><circle cx="202.19" cy="335.00" r="4.5" fill="#111"/><circle cx="222.02" cy="375.00" r="4.5" fill="#111"/><circle cx="237.50" cy="415.00" r="4.5" fill="#111"/><circle cx="249.67" cy="455.00" r="4.5" fill="#111"/><circle cx="306.23" cy="495.00" r="4.5" fill="#111"/><circle cx="375.24" cy="535.00" r="4.5" fill="#111"/><circle cx="469.94" cy="575.00" r="4.5" fill="#111"/><circle cx="582.47" cy="615.00" r="4.5" fill="#111"/><text x="895.0" y="58" text-anchor="middle" class="panel">x=0.310, 300 K</text><line x1="685.00" y1="75" x2="685.00" y2="635" class="grid"/><text x="685.00" y="666" text-anchor="middle" class="small">286</text><line x1="790.00" y1="75" x2="790.00" y2="635" class="grid"/><text x="790.00" y="666" text-anchor="middle" class="small">304</text><line x1="895.00" y1="75" x2="895.00" y2="635" class="grid"/><text x="895.00" y="666" text-anchor="middle" class="small">321</text><line x1="1000.00" y1="75" x2="1000.00" y2="635" class="grid"/><text x="1000.00" y="666" text-anchor="middle" class="small">338</text><line x1="1105.00" y1="75" x2="1105.00" y2="635" class="grid"/><text x="1105.00" y="666" text-anchor="middle" class="small">356</text><line x1="685" y1="635" x2="1105" y2="635" class="axis"/><circle cx="707.02" cy="95.00" r="4.5" fill="#111"/><circle cx="747.09" cy="135.00" r="4.5" fill="#111"/><circle cx="740.49" cy="175.00" r="4.5" fill="#111"/><circle cx="731.70" cy="215.00" r="4.5" fill="#111"/><circle cx="719.58" cy="255.00" r="4.5" fill="#111"/><circle cx="748.00" cy="295.00" r="5.2" fill="white" stroke="#111" stroke-width="1.8"/><circle cx="722.35" cy="335.00" r="4.5" fill="#111"/><circle cx="747.89" cy="375.00" r="4.5" fill="#111"/><circle cx="768.15" cy="415.00" r="4.5" fill="#111"/><circle cx="782.93" cy="455.00" r="4.5" fill="#111"/><circle cx="845.33" cy="495.00" r="4.5" fill="#111"/><circle cx="905.16" cy="535.00" r="4.5" fill="#111"/><circle cx="969.95" cy="575.00" r="4.5" fill="#111"/><circle cx="1079.17" cy="615.00" r="4.5" fill="#111"/><text x="642" y="688" text-anchor="middle" class="label">Extracted edge (meV)</text></svg>
