<svg xmlns="http://www.w3.org/2000/svg" width="1000" height="600" viewBox="0 0 1000 600"><title>Relative fitted-intercept positions</title><rect width="100%" height="100%" fill="white"/><style>text{font-family:Arial,Helvetica,sans-serif;fill:#171717}.title{font-size:21px;font-weight:700}.label{font-size:14px}.small{font-size:12px}.grid{stroke:#d8d8d8;stroke-width:1}.axis{stroke:#171717;stroke-width:1.4}</style><text x="500" y="34" text-anchor="middle" class="title">Declared fitted-intercept models are not equally positioned</text><line x1="205.0" y1="515.0" x2="945.0" y2="515.0" class="axis"/><line x1="205.0" y1="80.0" x2="205.0" y2="515.0" class="axis"/><line x1="205.00" y1="80.0" x2="205.00" y2="515.0" class="grid"/><text x="205.00" y="542" text-anchor="middle" class="label">0</text><line x1="307.78" y1="80.0" x2="307.78" y2="515.0" class="grid"/><text x="307.78" y="542" text-anchor="middle" class="label">1</text><line x1="410.56" y1="80.0" x2="410.56" y2="515.0" class="grid"/><text x="410.56" y="542" text-anchor="middle" class="label">2</text><line x1="513.33" y1="80.0" x2="513.33" y2="515.0" class="grid"/><text x="513.33" y="542" text-anchor="middle" class="label">3</text><line x1="616.11" y1="80.0" x2="616.11" y2="515.0" class="grid"/><text x="616.11" y="542" text-anchor="middle" class="label">4</text><line x1="718.89" y1="80.0" x2="718.89" y2="515.0" class="grid"/><text x="718.89" y="542" text-anchor="middle" class="label">5</text><line x1="821.67" y1="80.0" x2="821.67" y2="515.0" class="grid"/><text x="821.67" y="542" text-anchor="middle" class="label">6</text><line x1="924.44" y1="80.0" x2="924.44" y2="515.0" class="grid"/><text x="924.44" y="542" text-anchor="middle" class="label">7</text><text x="195" y="520.00" text-anchor="end" class="label">free p</text><text x="195" y="433.00" text-anchor="end" class="label">p = 0.5</text><text x="195" y="346.00" text-anchor="end" class="label">p = 0.7</text><text x="195" y="259.00" text-anchor="end" class="label">source-panel p</text><text x="195" y="172.00" text-anchor="end" class="label">p = 1</text><text x="195" y="85.00" text-anchor="end" class="label">Chu Kane-region</text><circle cx="269.30" cy="506.00" r="5.2"/><circle cx="864.26" cy="419.00" r="5.2"/><text x="873.26" y="423.00" class="small">B</text><circle cx="728.59" cy="332.00" r="5.2"/><circle cx="472.80" cy="245.00" r="5.2"/><circle cx="205.00" cy="158.00" r="5.2"/><circle cx="864.26" cy="71.00" r="5.2"/><text x="873.26" y="75.00" class="small">B</text><rect x="200.00" y="519.00" width="10" height="10" fill="white" stroke="black" stroke-width="1.5"/><rect x="886.35" y="432.00" width="10" height="10" fill="white" stroke="black" stroke-width="1.5"/><rect x="773.32" y="345.00" width="10" height="10" fill="white" stroke="black" stroke-width="1.5"/><rect x="622.84" y="258.00" width="10" height="10" fill="white" stroke="black" stroke-width="1.5"/><rect x="415.17" y="171.00" width="10" height="10" fill="white" stroke="black" stroke-width="1.5"/><rect x="902.01" y="84.00" width="10" height="10" fill="white" stroke="black" stroke-width="1.5"/><text x="916.01" y="93.00" class="small">B</text><circle cx="735" cy="58" r="5.2"/><text x="748" y="62" class="small">x = 0.226</text><rect x="826" y="53" width="10" height="10" fill="white" stroke="black" stroke-width="1.5"/><text x="842" y="62" class="small">x = 0.310</text><text x="500" y="579" text-anchor="middle" class="label">Fitted intercept relative to the lowest non-boundary model (meV)</text><text x="938" y="79" text-anchor="end" class="small">B = boundary-limited</text></svg>
