<svg xmlns="http://www.w3.org/2000/svg" width="980" height="650" viewBox="0 0 980 650"><title>Real spectrum and fitted observation models</title><rect width="100%" height="100%" fill="white"/><style>text{font-family:Arial,sans-serif;fill:#111}.grid{stroke:#ddd}.axis{stroke:#111;stroke-width:1.4}.small{font-size:12px}.label{font-size:15px}.title{font-size:20px;font-weight:700}</style><text x="35" y="34" class="title">Figure 1. Real HgCdTe spectrum and fitted observation models</text><text x="525" y="58" text-anchor="middle" class="label">Moazzami 2005 Figure 6a, x=0.226, 300 K, solid IRSE trace</text><line x1="169.62" y1="75" x2="169.62" y2="565" class="grid"/><text x="169.62" y="592" text-anchor="middle" class="label">0.18</text><line x1="298.85" y1="75" x2="298.85" y2="565" class="grid"/><text x="298.85" y="592" text-anchor="middle" class="label">0.20</text><line x1="428.08" y1="75" x2="428.08" y2="565" class="grid"/><text x="428.08" y="592" text-anchor="middle" class="label">0.22</text><line x1="557.31" y1="75" x2="557.31" y2="565" class="grid"/><text x="557.31" y="592" text-anchor="middle" class="label">0.24</text><line x1="686.54" y1="75" x2="686.54" y2="565" class="grid"/><text x="686.54" y="592" text-anchor="middle" class="label">0.26</text><line x1="815.77" y1="75" x2="815.77" y2="565" class="grid"/><text x="815.77" y="592" text-anchor="middle" class="label">0.28</text><line x1="945.00" y1="75" x2="945.00" y2="565" class="grid"/><text x="945.00" y="592" text-anchor="middle" class="label">0.30</text><line x1="105" y1="520.45" x2="945" y2="520.45" class="grid"/><text x="87" y="525.45" text-anchor="end" class="label">10^2</text><line x1="105" y1="297.73" x2="945" y2="297.73" class="grid"/><text x="87" y="302.73" text-anchor="end" class="label">10^3</text><line x1="105" y1="75.00" x2="945" y2="75.00" class="grid"/><text x="87" y="80.00" text-anchor="end" class="label">10^4</text><line x1="105" y1="565" x2="945" y2="565" class="axis"/><line x1="105" y1="75" x2="105" y2="565" class="axis"/><text x="525" y="628" text-anchor="middle" class="label">Photon energy (eV)</text><text transform="translate(28 320) rotate(-90)" text-anchor="middle" class="label">Absorption coefficient (cm-1)</text><polyline points="106.1,511.7 119.7,501.3 133.3,477.2 146.9,453.1 160.5,431.1 174.1,410.5 187.8,389.2 201.4,370.1 215.0,355.2 228.6,336.0 242.2,319.7 255.8,303.4 269.4,289.2 283.0,282.8 296.6,263.0 310.2,253.7 323.8,243.8 337.4,235.3 351.0,228.2 364.6,221.1 378.2,214.0 391.8,210.5 405.4,204.1 419.0,199.8 432.6,194.9 446.2,192.0 459.8,187.8 473.4,184.9 487.0,181.4 500.6,178.6 514.2,176.4 527.8,173.6 541.4,171.5 555.0,168.6 568.6,167.2 582.2,164.4 595.9,163.0 609.5,160.8 623.1,158.7 636.7,156.6 650.3,154.4 663.9,153.4 677.5,151.6 691.1,150.2 704.7,148.1 718.3,147.4 731.9,145.7 745.5,143.8 759.1,141.7 772.7,141.0 786.3,139.5 799.9,137.8 813.5,136.7 827.1,135.8 840.7,133.9 854.3,132.5 867.9,131.7 881.5,130.3 895.1,128.9 908.7,127.5 922.3,126.5 935.9,122.5 945.0,122.2 945.0,122.2" fill="none" stroke="#111" stroke-width="2.4"/><polyline points="190.4,486.1 204.7,402.7 218.9,360.0 233.1,331.4 247.4,310.0 261.6,292.9 275.8,278.8 290.1,266.7 304.3,256.3 318.6,247.1 332.8,238.9 347.0,231.6 361.3,224.9 375.5,218.7 389.7,213.1 404.0,207.9 418.2,203.1 432.5,198.6 446.7,194.4 460.9,190.4 475.2,186.7 489.4,183.2 503.6,179.9 517.9,176.8 532.1,173.8 546.4,170.9 560.6,168.2 574.8,165.7 589.1,163.2 603.3,160.9 617.5,158.6 631.8,156.4 646.0,154.4 660.3,152.4 674.5,150.4 688.7,148.6 703.0,146.8 717.2,145.1 731.4,143.4 745.7,141.8 759.9,140.3 774.2,138.8 788.4,137.3 802.6,135.9 816.9,134.6 831.1,133.2 845.3,131.9 859.6,130.7 873.8,129.5 888.1,128.3 902.3,127.2 916.5,126.1 930.8,125.0 945.0,123.9" fill="none" stroke="#666" stroke-width="1.5"/><line x1="615" y1="92" x2="657" y2="92" stroke="#666" stroke-width="1.5"/><text x="664" y="96" class="small">fractional p free</text><polyline points="218.9,446.9 233.1,307.3 247.4,276.2 261.6,258.2 275.8,245.6 290.1,236.0 304.3,228.4 318.6,222.0 332.8,216.7 347.0,212.0 361.3,208.0 375.5,204.4 389.7,201.2 404.0,198.4 418.2,195.8 432.5,193.4 446.7,191.3 460.9,189.3 475.2,187.5 489.4,185.8 503.6,184.3 517.9,182.8 532.1,181.5 546.4,180.3 560.6,179.1 574.8,178.0 589.1,177.0 603.3,176.0 617.5,175.1 631.8,174.3 646.0,173.5 660.3,172.7 674.5,172.0 688.7,171.4 703.0,170.8 717.2,170.2 731.4,169.6 745.7,169.1 759.9,168.6 774.2,168.1 788.4,167.7 802.6,167.2 816.9,166.8 831.1,166.5 845.3,166.1 859.6,165.8 873.8,165.4 888.1,165.1 902.3,164.8 916.5,164.6 930.8,164.3 945.0,164.1" fill="none" stroke="#666" stroke-width="1.5" stroke-dasharray="9 5"/><line x1="615" y1="115" x2="657" y2="115" stroke="#666" stroke-width="1.5" stroke-dasharray="9 5"/><text x="664" y="119" class="small">fractional p=0.5</text><polyline points="218.9,393.6 233.1,332.1 247.4,301.2 261.6,280.7 275.8,265.4 290.1,253.3 304.3,243.4 318.6,234.9 332.8,227.7 347.0,221.3 361.3,215.6 375.5,210.6 389.7,206.0 404.0,201.9 418.2,198.1 432.5,194.6 446.7,191.3 460.9,188.3 475.2,185.5 489.4,182.9 503.6,180.5 517.9,178.2 532.1,176.1 546.4,174.0 560.6,172.1 574.8,170.3 589.1,168.6 603.3,167.0 617.5,165.4 631.8,164.0 646.0,162.6 660.3,161.2 674.5,159.9 688.7,158.7 703.0,157.6 717.2,156.4 731.4,155.4 745.7,154.3 759.9,153.4 774.2,152.4 788.4,151.5 802.6,150.6 816.9,149.8 831.1,149.0 845.3,148.2 859.6,147.4 873.8,146.7 888.1,146.0 902.3,145.3 916.5,144.7 930.8,144.0 945.0,143.4" fill="none" stroke="#666" stroke-width="1.5" stroke-dasharray="3 4"/><line x1="615" y1="138" x2="657" y2="138" stroke="#666" stroke-width="1.5" stroke-dasharray="3 4"/><text x="664" y="142" class="small">fractional p=0.7</text><polyline points="204.7,438.3 218.9,370.3 233.1,333.9 247.4,309.1 261.6,290.5 275.8,275.6 290.1,263.2 304.3,252.7 318.6,243.5 332.8,235.5 347.0,228.3 361.3,221.9 375.5,216.0 389.7,210.6 404.0,205.7 418.2,201.2 432.5,197.0 446.7,193.1 460.9,189.4 475.2,186.0 489.4,182.7 503.6,179.7 517.9,176.8 532.1,174.1 546.4,171.5 560.6,169.1 574.8,166.8 589.1,164.6 603.3,162.4 617.5,160.4 631.8,158.5 646.0,156.6 660.3,154.9 674.5,153.1 688.7,151.5 703.0,149.9 717.2,148.4 731.4,147.0 745.7,145.5 759.9,144.2 774.2,142.9 788.4,141.6 802.6,140.4 816.9,139.2 831.1,138.1 845.3,136.9 859.6,135.9 873.8,134.8 888.1,133.8 902.3,132.8 916.5,131.9 930.8,130.9 945.0,130.0" fill="none" stroke="#666" stroke-width="1.5" stroke-dasharray="12 4 3 4"/><line x1="615" y1="161" x2="657" y2="161" stroke="#666" stroke-width="1.5" stroke-dasharray="12 4 3 4"/><text x="664" y="165" class="small">fractional p=0.872</text><polyline points="190.4,463.5 204.7,396.1 218.9,357.5 233.1,330.5 247.4,309.9 261.6,293.3 275.8,279.4 290.1,267.5 304.3,257.1 318.6,248.0 332.8,239.8 347.0,232.4 361.3,225.6 375.5,219.4 389.7,213.8 404.0,208.5 418.2,203.6 432.5,199.0 446.7,194.8 460.9,190.7 475.2,187.0 489.4,183.4 503.6,180.0 517.9,176.8 532.1,173.7 546.4,170.8 560.6,168.1 574.8,165.4 589.1,162.9 603.3,160.5 617.5,158.2 631.8,156.0 646.0,153.8 660.3,151.8 674.5,149.8 688.7,147.9 703.0,146.1 717.2,144.3 731.4,142.6 745.7,140.9 759.9,139.3 774.2,137.8 788.4,136.3 802.6,134.8 816.9,133.4 831.1,132.0 845.3,130.7 859.6,129.4 873.8,128.1 888.1,126.9 902.3,125.7 916.5,124.6 930.8,123.5 945.0,122.4" fill="none" stroke="#666" stroke-width="1.5" stroke-dasharray="2 3"/><line x1="615" y1="184" x2="657" y2="184" stroke="#666" stroke-width="1.5" stroke-dasharray="2 3"/><text x="664" y="188" class="small">fractional p=1</text><polyline points="218.9,278.1 233.1,262.2 247.4,254.0 261.6,247.6 275.8,242.2 290.1,237.5 304.3,233.2 318.6,229.2 332.8,225.6 347.0,222.1 361.3,218.8 375.5,215.7 389.7,212.7 404.0,209.9 418.2,207.1 432.5,204.5 446.7,201.9 460.9,199.5 475.2,197.0 489.4,194.7 503.6,192.4 517.9,190.2 532.1,188.0 546.4,185.9 560.6,183.8 574.8,181.7 589.1,179.7 603.3,177.8 617.5,175.9 631.8,174.0 646.0,172.1 660.3,170.3 674.5,168.5 688.7,166.7 703.0,165.0 717.2,163.2 731.4,161.5 745.7,159.9 759.9,158.2 774.2,156.6 788.4,155.0 802.6,153.4 816.9,151.8 831.1,150.3 845.3,148.7 859.6,147.2 873.8,145.7 888.1,144.3 902.3,142.8 916.5,141.3 930.8,139.9 945.0,138.5" fill="none" stroke="#666" stroke-width="1.5" stroke-dasharray="7 3 2 3"/><line x1="615" y1="207" x2="657" y2="207" stroke="#666" stroke-width="1.5" stroke-dasharray="7 3 2 3"/><text x="664" y="211" class="small">Chu 1994 Kane</text><line x1="615" y1="230" x2="657" y2="230" stroke="#111" stroke-width="2.4"/><text x="664" y="234" class="small">digitized IRSE trace</text><text x="108" y="610" class="small">Display vertices are reduced; the full digitized spectrum remains the fit authority.</text></svg>
