<svg xmlns="http://www.w3.org/2000/svg" width="1220" height="700" viewBox="0 0 1220 700"><title>Reconstructed spectrum and fitted observation operators</title><rect width="100%" height="100%" fill="white"/><style>text{font-family:Arial,Helvetica,sans-serif;fill:#151515}.grid{stroke:#e2e2e2;stroke-width:1}.axis{stroke:#151515;stroke-width:1.5}.small{font-size:12px}.note{font-size:12px;fill:#4a4a4a}.label{font-size:15px}.title{font-size:21px;font-weight:700}.subtitle{font-size:14px;fill:#333}.legend-title{font-size:14px;font-weight:700}</style><text x="35" y="35" class="title">Reconstructed HgCdTe spectrum and observation-operator fits</text><text x="485" y="64" text-anchor="middle" class="subtitle">Moazzami 2005 Figure 6a; x=0.226, T=300 K, thickness=15.40 um</text><rect x="210.64" y="95" width="480.00" height="490" fill="#f4f6f8"/><rect x="256.79" y="95" width="12.31" height="490" fill="#F0E442" fill-opacity="0.22"/><line x1="163.46" y1="95" x2="163.46" y2="585" class="grid"/><text x="163.46" y="612" text-anchor="middle" class="label">0.18</text><line x1="280.38" y1="95" x2="280.38" y2="585" class="grid"/><text x="280.38" y="612" text-anchor="middle" class="label">0.20</text><line x1="397.31" y1="95" x2="397.31" y2="585" class="grid"/><text x="397.31" y="612" text-anchor="middle" class="label">0.22</text><line x1="514.23" y1="95" x2="514.23" y2="585" class="grid"/><text x="514.23" y="612" text-anchor="middle" class="label">0.24</text><line x1="631.15" y1="95" x2="631.15" y2="585" class="grid"/><text x="631.15" y="612" text-anchor="middle" class="label">0.26</text><line x1="748.08" y1="95" x2="748.08" y2="585" class="grid"/><text x="748.08" y="612" text-anchor="middle" class="label">0.28</text><line x1="865.00" y1="95" x2="865.00" y2="585" class="grid"/><text x="865.00" y="612" text-anchor="middle" class="label">0.30</text><line x1="105" y1="540.45" x2="865" y2="540.45" class="grid"/><text x="87" y="545.45" text-anchor="end" class="label">10^2</text><line x1="105" y1="317.73" x2="865" y2="317.73" class="grid"/><text x="87" y="322.73" text-anchor="end" class="label">10^3</text><line x1="105" y1="95.00" x2="865" y2="95.00" class="grid"/><text x="87" y="100.00" text-anchor="end" class="label">10^4</text><line x1="105" y1="585" x2="865" y2="585" class="axis"/><line x1="105" y1="95" x2="105" y2="585" class="axis"/><text x="485" y="652" text-anchor="middle" class="label">Photon energy E (eV)</text><text transform="translate(30 340) rotate(-90)" text-anchor="middle" class="label">Absorption coefficient alpha (cm-1)</text><polyline points="106.0,531.7 112.2,529.5 118.3,521.3 124.5,507.8 130.6,497.2 136.8,485.8 142.9,473.1 149.1,461.7 155.3,451.1 161.4,440.4 167.6,430.5 173.7,422.0 179.9,409.2 186.0,400.0 192.2,390.1 198.3,381.6 204.5,375.2 210.6,363.1 216.8,356.0 222.9,348.9 229.1,339.7 235.3,331.9 241.4,323.4 247.6,315.6 253.7,309.2 259.9,302.8 266.0,302.8 272.2,295.7 278.3,283.0 284.5,280.1 290.6,273.7 296.8,269.5 302.9,263.8 309.1,260.3 315.3,255.3 321.4,251.1 327.6,248.2 333.7,243.2 339.9,241.1 346.0,239.0 352.2,234.0 358.3,231.9 364.5,230.5 370.6,226.9 376.8,224.1 382.9,222.0 389.1,219.8 395.3,217.7 401.4,214.9 407.6,214.2 413.7,212.0 419.9,209.9 426.0,207.8 432.2,206.4 438.3,204.9 444.5,202.8 450.6,201.4 456.8,200.7 462.9,198.6 469.1,197.1 475.3,196.4 481.4,195.0 487.6,193.6 493.7,192.2 499.9,191.5 506.0,190.0 512.2,188.6 518.3,187.9 524.5,187.2 530.6,185.8 536.8,184.4 542.9,183.7 549.1,183.0 555.3,181.5 561.4,180.8 567.6,180.1 573.7,178.7 579.9,177.3 586.0,176.6 592.2,175.9 598.3,174.4 604.5,173.7 610.6,173.4 616.8,172.3 622.9,171.6 629.1,170.9 635.3,170.2 641.4,168.8 647.6,168.1 653.7,167.4 659.9,167.4 666.0,165.9 672.2,165.7 678.3,163.8 684.5,163.8 690.6,163.1 696.8,161.7 702.9,161.7 709.1,161.0 715.3,159.9 721.4,159.5 727.6,159.5 733.7,157.8 739.9,157.8 746.0,156.7 752.2,155.8 758.3,155.8 764.5,153.9 770.6,153.9 776.8,153.2 782.9,152.5 789.1,151.7 795.3,151.7 801.4,150.3 807.6,150.3 813.7,148.9 819.9,148.9 826.0,148.2 832.2,147.5 838.3,146.5 844.5,146.5 850.6,144.7 856.8,142.5 862.9,142.2 865.0,142.2" fill="none" stroke="#9a9a9a" stroke-width="1.2" stroke-linejoin="round" stroke-linecap="round"/><circle cx="106.03" cy="531.71" r="2.0" fill="#9a9a9a"/><circle cx="112.18" cy="529.46" r="2.0" fill="#9a9a9a"/><circle cx="118.33" cy="521.30" r="2.0" fill="#9a9a9a"/><circle cx="124.49" cy="507.83" r="2.0" fill="#9a9a9a"/><circle cx="130.64" cy="497.19" r="2.0" fill="#9a9a9a"/><circle cx="136.79" cy="485.84" r="2.0" fill="#9a9a9a"/><circle cx="142.95" cy="473.07" r="2.0" fill="#9a9a9a"/><circle cx="149.10" cy="461.72" r="2.0" fill="#9a9a9a"/><circle cx="155.26" cy="451.08" r="2.0" fill="#9a9a9a"/><circle cx="161.41" cy="440.44" r="2.0" fill="#9a9a9a"/><circle cx="167.56" cy="430.51" r="2.0" fill="#9a9a9a"/><circle cx="173.72" cy="422.00" r="2.0" fill="#9a9a9a"/><circle cx="179.87" cy="409.23" r="2.0" fill="#9a9a9a"/><circle cx="186.03" cy="400.01" r="2.0" fill="#9a9a9a"/><circle cx="192.18" cy="390.08" r="2.0" fill="#9a9a9a"/><circle cx="198.33" cy="381.57" r="2.0" fill="#9a9a9a"/><circle cx="204.49" cy="375.18" r="2.0" fill="#9a9a9a"/><circle cx="696.79" cy="161.68" r="2.0" fill="#9a9a9a"/><circle cx="702.95" cy="161.68" r="2.0" fill="#9a9a9a"/><circle cx="709.10" cy="160.97" r="2.0" fill="#9a9a9a"/><circle cx="715.26" cy="159.90" r="2.0" fill="#9a9a9a"/><circle cx="721.41" cy="159.55" r="2.0" fill="#9a9a9a"/><circle cx="727.56" cy="159.55" r="2.0" fill="#9a9a9a"/><circle cx="733.72" cy="157.85" r="2.0" fill="#9a9a9a"/><circle cx="739.87" cy="157.85" r="2.0" fill="#9a9a9a"/><circle cx="746.03" cy="156.71" r="2.0" fill="#9a9a9a"/><circle cx="752.18" cy="155.82" r="2.0" fill="#9a9a9a"/><circle cx="758.33" cy="155.82" r="2.0" fill="#9a9a9a"/><circle cx="764.49" cy="153.87" r="2.0" fill="#9a9a9a"/><circle cx="770.64" cy="153.87" r="2.0" fill="#9a9a9a"/><circle cx="776.79" cy="153.16" r="2.0" fill="#9a9a9a"/><circle cx="782.95" cy="152.46" r="2.0" fill="#9a9a9a"/><circle cx="789.10" cy="151.75" r="2.0" fill="#9a9a9a"/><circle cx="795.26" cy="151.75" r="2.0" fill="#9a9a9a"/><circle cx="801.41" cy="150.33" r="2.0" fill="#9a9a9a"/><circle cx="807.56" cy="150.33" r="2.0" fill="#9a9a9a"/><circle cx="813.72" cy="148.91" r="2.0" fill="#9a9a9a"/><circle cx="819.87" cy="148.91" r="2.0" fill="#9a9a9a"/><circle cx="826.03" cy="148.20" r="2.0" fill="#9a9a9a"/><circle cx="832.18" cy="147.49" r="2.0" fill="#9a9a9a"/><circle cx="838.33" cy="146.54" r="2.0" fill="#9a9a9a"/><circle cx="844.49" cy="146.54" r="2.0" fill="#9a9a9a"/><circle cx="850.64" cy="144.65" r="2.0" fill="#9a9a9a"/><circle cx="856.79" cy="142.52" r="2.0" fill="#9a9a9a"/><circle cx="862.95" cy="142.17" r="2.0" fill="#9a9a9a"/><circle cx="865.00" cy="142.17" r="2.0" fill="#9a9a9a"/><circle cx="210.64" cy="363.12" r="2.25" fill="#111111"/><circle cx="216.79" cy="356.03" r="2.25" fill="#111111"/><circle cx="222.95" cy="348.94" r="2.25" fill="#111111"/><circle cx="229.10" cy="339.72" r="2.25" fill="#111111"/><circle cx="235.26" cy="331.91" r="2.25" fill="#111111"/><circle cx="241.41" cy="323.40" r="2.25" fill="#111111"/><circle cx="247.56" cy="315.60" r="2.25" fill="#111111"/><circle cx="253.72" cy="309.22" r="2.25" fill="#111111"/><circle cx="259.87" cy="302.83" r="2.25" fill="#111111"/><circle cx="266.03" cy="302.83" r="2.25" fill="#111111"/><circle cx="272.18" cy="295.74" r="2.25" fill="#111111"/><circle cx="278.33" cy="282.97" r="2.25" fill="#111111"/><circle cx="284.49" cy="280.13" r="2.25" fill="#111111"/><circle cx="290.64" cy="273.75" r="2.25" fill="#111111"/><circle cx="296.79" cy="269.49" r="2.25" fill="#111111"/><circle cx="302.95" cy="263.82" r="2.25" fill="#111111"/><circle cx="309.10" cy="260.27" r="2.25" fill="#111111"/><circle cx="315.26" cy="255.31" r="2.25" fill="#111111"/><circle cx="321.41" cy="251.05" r="2.25" fill="#111111"/><circle cx="327.56" cy="248.21" r="2.25" fill="#111111"/><circle cx="333.72" cy="243.25" r="2.25" fill="#111111"/><circle cx="339.87" cy="241.12" r="2.25" fill="#111111"/><circle cx="346.03" cy="238.99" r="2.25" fill="#111111"/><circle cx="352.18" cy="234.03" r="2.25" fill="#111111"/><circle cx="358.33" cy="231.90" r="2.25" fill="#111111"/><circle cx="364.49" cy="230.48" r="2.25" fill="#111111"/><circle cx="370.64" cy="226.93" r="2.25" fill="#111111"/><circle cx="376.79" cy="224.10" r="2.25" fill="#111111"/><circle cx="382.95" cy="221.97" r="2.25" fill="#111111"/><circle cx="389.10" cy="219.84" r="2.25" fill="#111111"/><circle cx="395.26" cy="217.71" r="2.25" fill="#111111"/><circle cx="401.41" cy="214.88" r="2.25" fill="#111111"/><circle cx="407.56" cy="214.17" r="2.25" fill="#111111"/><circle cx="413.72" cy="212.04" r="2.25" fill="#111111"/><circle cx="419.87" cy="209.91" r="2.25" fill="#111111"/><circle cx="426.03" cy="207.78" r="2.25" fill="#111111"/><circle cx="432.18" cy="206.36" r="2.25" fill="#111111"/><circle cx="438.33" cy="204.94" r="2.25" fill="#111111"/><circle cx="444.49" cy="202.82" r="2.25" fill="#111111"/><circle cx="450.64" cy="201.40" r="2.25" fill="#111111"/><circle cx="456.79" cy="200.69" r="2.25" fill="#111111"/><circle cx="462.95" cy="198.56" r="2.25" fill="#111111"/><circle cx="469.10" cy="197.14" r="2.25" fill="#111111"/><circle cx="475.26" cy="196.43" r="2.25" fill="#111111"/><circle cx="481.41" cy="195.01" r="2.25" fill="#111111"/><circle cx="487.56" cy="193.60" r="2.25" fill="#111111"/><circle cx="493.72" cy="192.18" r="2.25" fill="#111111"/><circle cx="499.87" cy="191.47" r="2.25" fill="#111111"/><circle cx="506.03" cy="190.05" r="2.25" fill="#111111"/><circle cx="512.18" cy="188.63" r="2.25" fill="#111111"/><circle cx="518.33" cy="187.92" r="2.25" fill="#111111"/><circle cx="524.49" cy="187.21" r="2.25" fill="#111111"/><circle cx="530.64" cy="185.79" r="2.25" fill="#111111"/><circle cx="536.79" cy="184.37" r="2.25" fill="#111111"/><circle cx="542.95" cy="183.67" r="2.25" fill="#111111"/><circle cx="549.10" cy="182.96" r="2.25" fill="#111111"/><circle cx="555.26" cy="181.54" r="2.25" fill="#111111"/><circle cx="561.41" cy="180.83" r="2.25" fill="#111111"/><circle cx="567.56" cy="180.12" r="2.25" fill="#111111"/><circle cx="573.72" cy="178.70" r="2.25" fill="#111111"/><circle cx="579.87" cy="177.28" r="2.25" fill="#111111"/><circle cx="586.03" cy="176.57" r="2.25" fill="#111111"/><circle cx="592.18" cy="175.86" r="2.25" fill="#111111"/><circle cx="598.33" cy="174.44" r="2.25" fill="#111111"/><circle cx="604.49" cy="173.73" r="2.25" fill="#111111"/><circle cx="610.64" cy="173.38" r="2.25" fill="#111111"/><circle cx="616.79" cy="172.32" r="2.25" fill="#111111"/><circle cx="622.95" cy="171.61" r="2.25" fill="#111111"/><circle cx="629.10" cy="170.90" r="2.25" fill="#111111"/><circle cx="635.26" cy="170.19" r="2.25" fill="#111111"/><circle cx="641.41" cy="168.77" r="2.25" fill="#111111"/><circle cx="647.56" cy="168.06" r="2.25" fill="#111111"/><circle cx="653.72" cy="167.35" r="2.25" fill="#111111"/><circle cx="659.87" cy="167.35" r="2.25" fill="#111111"/><circle cx="666.03" cy="165.93" r="2.25" fill="#111111"/><circle cx="672.18" cy="165.70" r="2.25" fill="#111111"/><circle cx="678.33" cy="163.80" r="2.25" fill="#111111"/><circle cx="684.49" cy="163.80" r="2.25" fill="#111111"/><circle cx="690.64" cy="163.09" r="2.25" fill="#111111"/><polyline points="210.6,373.5 213.7,366.4 216.7,359.9 219.7,353.8 222.7,348.1 225.7,342.8 228.8,337.8 231.8,333.0 234.8,328.5 237.8,324.3 240.8,320.2 243.8,316.4 246.9,312.7 249.9,309.2 252.9,305.8 255.9,302.5 258.9,299.4 262.0,296.4 265.0,293.5 268.0,290.7 271.0,288.0 274.0,285.4 277.1,282.9 280.1,280.4 283.1,278.0 286.1,275.7 289.1,273.5 292.2,271.3 295.2,269.2 298.2,267.1 301.2,265.1 304.2,263.2 307.2,261.3 310.3,259.4 313.3,257.6 316.3,255.9 319.3,254.1 322.3,252.5 325.4,250.8 328.4,249.2 331.4,247.6 334.4,246.1 337.4,244.6 340.5,243.1 343.5,241.7 346.5,240.2 349.5,238.8 352.5,237.5 355.5,236.1 358.6,234.8 361.6,233.5 364.6,232.3 367.6,231.0 370.6,229.8 373.7,228.6 376.7,227.5 379.7,226.3 382.7,225.2 385.7,224.0 388.8,222.9 391.8,221.9 394.8,220.8 397.8,219.8 400.8,218.7 403.8,217.7 406.9,216.7 409.9,215.7 412.9,214.8 415.9,213.8 418.9,212.9 422.0,211.9 425.0,211.0 428.0,210.1 431.0,209.3 434.0,208.4 437.1,207.5 440.1,206.7 443.1,205.8 446.1,205.0 449.1,204.2 452.2,203.4 455.2,202.6 458.2,201.8 461.2,201.0 464.2,200.3 467.2,199.5 470.3,198.8 473.3,198.0 476.3,197.3 479.3,196.6 482.3,195.9 485.4,195.2 488.4,194.5 491.4,193.8 494.4,193.1 497.4,192.4 500.5,191.8 503.5,191.1 506.5,190.5 509.5,189.8 512.5,189.2 515.5,188.6 518.6,188.0 521.6,187.4 524.6,186.7 527.6,186.1 530.6,185.6 533.7,185.0 536.7,184.4 539.7,183.8 542.7,183.3 545.7,182.7 548.8,182.1 551.8,181.6 554.8,181.0 557.8,180.5 560.8,180.0 563.8,179.4 566.9,178.9 569.9,178.4 572.9,177.9 575.9,177.4 578.9,176.9 582.0,176.4 585.0,175.9 588.0,175.4 591.0,174.9 594.0,174.4 597.1,174.0 600.1,173.5 603.1,173.0 606.1,172.6 609.1,172.1 612.2,171.6 615.2,171.2 618.2,170.7 621.2,170.3 624.2,169.9 627.2,169.4 630.3,169.0 633.3,168.6 636.3,168.1 639.3,167.7 642.3,167.3 645.4,166.9 648.4,166.5 651.4,166.1 654.4,165.7 657.4,165.3 660.5,164.9 663.5,164.5 666.5,164.1 669.5,163.7 672.5,163.3 675.5,163.0 678.6,162.6 681.6,162.2 684.6,161.8 687.6,161.5 690.6,161.1" fill="none" stroke="#0072B2" stroke-width="2.0"/><polyline points="210.6,394.5 213.7,363.6 216.7,345.0 219.7,331.8 222.7,321.5 225.7,313.1 228.8,306.0 231.8,299.9 234.8,294.6 237.8,289.8 240.8,285.5 243.8,281.6 246.9,278.0 249.9,274.7 252.9,271.6 255.9,268.8 258.9,266.1 262.0,263.6 265.0,261.3 268.0,259.1 271.0,257.0 274.0,255.0 277.1,253.1 280.1,251.3 283.1,249.6 286.1,247.9 289.1,246.4 292.2,244.9 295.2,243.4 298.2,242.0 301.2,240.7 304.2,239.4 307.2,238.2 310.3,237.0 313.3,235.8 316.3,234.7 319.3,233.6 322.3,232.6 325.4,231.6 328.4,230.6 331.4,229.6 334.4,228.7 337.4,227.8 340.5,227.0 343.5,226.1 346.5,225.3 349.5,224.5 352.5,223.7 355.5,222.9 358.6,222.2 361.6,221.5 364.6,220.8 367.6,220.1 370.6,219.4 373.7,218.8 376.7,218.1 379.7,217.5 382.7,216.9 385.7,216.3 388.8,215.7 391.8,215.1 394.8,214.6 397.8,214.0 400.8,213.5 403.8,213.0 406.9,212.5 409.9,212.0 412.9,211.5 415.9,211.0 418.9,210.5 422.0,210.1 425.0,209.6 428.0,209.2 431.0,208.7 434.0,208.3 437.1,207.9 440.1,207.5 443.1,207.1 446.1,206.7 449.1,206.3 452.2,205.9 455.2,205.5 458.2,205.2 461.2,204.8 464.2,204.4 467.2,204.1 470.3,203.7 473.3,203.4 476.3,203.1 479.3,202.8 482.3,202.4 485.4,202.1 488.4,201.8 491.4,201.5 494.4,201.2 497.4,200.9 500.5,200.6 503.5,200.3 506.5,200.0 509.5,199.8 512.5,199.5 515.5,199.2 518.6,199.0 521.6,198.7 524.6,198.5 527.6,198.2 530.6,198.0 533.7,197.7 536.7,197.5 539.7,197.2 542.7,197.0 545.7,196.8 548.8,196.5 551.8,196.3 554.8,196.1 557.8,195.9 560.8,195.7 563.8,195.5 566.9,195.3 569.9,195.1 572.9,194.9 575.9,194.7 578.9,194.5 582.0,194.3 585.0,194.1 588.0,193.9 591.0,193.7 594.0,193.5 597.1,193.3 600.1,193.2 603.1,193.0 606.1,192.8 609.1,192.6 612.2,192.5 615.2,192.3 618.2,192.2 621.2,192.0 624.2,191.8 627.2,191.7 630.3,191.5 633.3,191.4 636.3,191.2 639.3,191.1 642.3,190.9 645.4,190.8 648.4,190.6 651.4,190.5 654.4,190.4 657.4,190.2 660.5,190.1 663.5,190.0 666.5,189.8 669.5,189.7 672.5,189.6 675.5,189.4 678.6,189.3 681.6,189.2 684.6,189.1 687.6,189.0 690.6,188.8" fill="none" stroke="#D55E00" stroke-width="2.0" stroke-dasharray="9 5"/><polyline points="210.6,395.7 213.7,379.6 216.7,366.7 219.7,356.0 222.7,346.8 225.7,338.7 228.8,331.6 231.8,325.2 234.8,319.4 237.8,314.1 240.8,309.2 243.8,304.7 246.9,300.4 249.9,296.5 252.9,292.8 255.9,289.3 258.9,286.1 262.0,283.0 265.0,280.0 268.0,277.2 271.0,274.5 274.0,272.0 277.1,269.6 280.1,267.2 283.1,265.0 286.1,262.8 289.1,260.7 292.2,258.7 295.2,256.8 298.2,255.0 301.2,253.2 304.2,251.4 307.2,249.7 310.3,248.1 313.3,246.5 316.3,245.0 319.3,243.5 322.3,242.1 325.4,240.7 328.4,239.3 331.4,238.0 334.4,236.7 337.4,235.4 340.5,234.2 343.5,233.0 346.5,231.8 349.5,230.7 352.5,229.6 355.5,228.5 358.6,227.4 361.6,226.4 364.6,225.4 367.6,224.4 370.6,223.4 373.7,222.4 376.7,221.5 379.7,220.6 382.7,219.7 385.7,218.8 388.8,217.9 391.8,217.1 394.8,216.3 397.8,215.5 400.8,214.7 403.8,213.9 406.9,213.1 409.9,212.4 412.9,211.6 415.9,210.9 418.9,210.2 422.0,209.5 425.0,208.8 428.0,208.1 431.0,207.4 434.0,206.8 437.1,206.1 440.1,205.5 443.1,204.9 446.1,204.3 449.1,203.7 452.2,203.1 455.2,202.5 458.2,201.9 461.2,201.3 464.2,200.8 467.2,200.2 470.3,199.7 473.3,199.1 476.3,198.6 479.3,198.1 482.3,197.6 485.4,197.1 488.4,196.6 491.4,196.1 494.4,195.6 497.4,195.1 500.5,194.6 503.5,194.2 506.5,193.7 509.5,193.3 512.5,192.8 515.5,192.4 518.6,191.9 521.6,191.5 524.6,191.1 527.6,190.7 530.6,190.2 533.7,189.8 536.7,189.4 539.7,189.0 542.7,188.6 545.7,188.2 548.8,187.9 551.8,187.5 554.8,187.1 557.8,186.7 560.8,186.4 563.8,186.0 566.9,185.6 569.9,185.3 572.9,184.9 575.9,184.6 578.9,184.3 582.0,183.9 585.0,183.6 588.0,183.3 591.0,182.9 594.0,182.6 597.1,182.3 600.1,182.0 603.1,181.7 606.1,181.3 609.1,181.0 612.2,180.7 615.2,180.4 618.2,180.1 621.2,179.8 624.2,179.6 627.2,179.3 630.3,179.0 633.3,178.7 636.3,178.4 639.3,178.2 642.3,177.9 645.4,177.6 648.4,177.3 651.4,177.1 654.4,176.8 657.4,176.6 660.5,176.3 663.5,176.1 666.5,175.8 669.5,175.6 672.5,175.3 675.5,175.1 678.6,174.8 681.6,174.6 684.6,174.3 687.6,174.1 690.6,173.9" fill="none" stroke="#009E73" stroke-width="2.0" stroke-dasharray="3 4"/><polyline points="210.6,381.5 213.7,372.4 216.7,364.2 219.7,356.7 222.7,350.0 225.7,343.7 228.8,337.9 231.8,332.6 234.8,327.6 237.8,322.8 240.8,318.4 243.8,314.2 246.9,310.3 249.9,306.5 252.9,302.9 255.9,299.5 258.9,296.2 262.0,293.1 265.0,290.1 268.0,287.2 271.0,284.5 274.0,281.8 277.1,279.3 280.1,276.8 283.1,274.4 286.1,272.1 289.1,269.9 292.2,267.7 295.2,265.6 298.2,263.6 301.2,261.6 304.2,259.7 307.2,257.8 310.3,256.0 313.3,254.2 316.3,252.5 319.3,250.8 322.3,249.2 325.4,247.6 328.4,246.0 331.4,244.5 334.4,243.0 337.4,241.6 340.5,240.2 343.5,238.8 346.5,237.4 349.5,236.1 352.5,234.8 355.5,233.5 358.6,232.3 361.6,231.1 364.6,229.9 367.6,228.7 370.6,227.5 373.7,226.4 376.7,225.3 379.7,224.2 382.7,223.1 385.7,222.1 388.8,221.1 391.8,220.1 394.8,219.1 397.8,218.1 400.8,217.1 403.8,216.2 406.9,215.2 409.9,214.3 412.9,213.4 415.9,212.5 418.9,211.7 422.0,210.8 425.0,210.0 428.0,209.1 431.0,208.3 434.0,207.5 437.1,206.7 440.1,205.9 443.1,205.2 446.1,204.4 449.1,203.6 452.2,202.9 455.2,202.2 458.2,201.4 461.2,200.7 464.2,200.0 467.2,199.3 470.3,198.7 473.3,198.0 476.3,197.3 479.3,196.7 482.3,196.0 485.4,195.4 488.4,194.7 491.4,194.1 494.4,193.5 497.4,192.9 500.5,192.3 503.5,191.7 506.5,191.1 509.5,190.5 512.5,190.0 515.5,189.4 518.6,188.8 521.6,188.3 524.6,187.7 527.6,187.2 530.6,186.7 533.7,186.1 536.7,185.6 539.7,185.1 542.7,184.6 545.7,184.1 548.8,183.6 551.8,183.1 554.8,182.6 557.8,182.1 560.8,181.6 563.8,181.2 566.9,180.7 569.9,180.2 572.9,179.8 575.9,179.3 578.9,178.9 582.0,178.4 585.0,178.0 588.0,177.6 591.0,177.1 594.0,176.7 597.1,176.3 600.1,175.8 603.1,175.4 606.1,175.0 609.1,174.6 612.2,174.2 615.2,173.8 618.2,173.4 621.2,173.0 624.2,172.6 627.2,172.2 630.3,171.9 633.3,171.5 636.3,171.1 639.3,170.7 642.3,170.4 645.4,170.0 648.4,169.7 651.4,169.3 654.4,168.9 657.4,168.6 660.5,168.2 663.5,167.9 666.5,167.5 669.5,167.2 672.5,166.9 675.5,166.5 678.6,166.2 681.6,165.9 684.6,165.6 687.6,165.2 690.6,164.9" fill="none" stroke="#CC79A7" stroke-width="2.0" stroke-dasharray="12 4 3 4"/><polyline points="210.6,371.4 213.7,364.8 216.7,358.6 219.7,352.8 222.7,347.4 225.7,342.3 228.8,337.5 231.8,332.9 234.8,328.5 237.8,324.4 240.8,320.5 243.8,316.7 246.9,313.1 249.9,309.6 252.9,306.3 255.9,303.1 258.9,300.0 262.0,297.1 265.0,294.2 268.0,291.4 271.0,288.8 274.0,286.2 277.1,283.7 280.1,281.2 283.1,278.9 286.1,276.6 289.1,274.3 292.2,272.2 295.2,270.0 298.2,268.0 301.2,266.0 304.2,264.0 307.2,262.1 310.3,260.3 313.3,258.5 316.3,256.7 319.3,255.0 322.3,253.3 325.4,251.6 328.4,250.0 331.4,248.4 334.4,246.9 337.4,245.3 340.5,243.9 343.5,242.4 346.5,241.0 349.5,239.6 352.5,238.2 355.5,236.8 358.6,235.5 361.6,234.2 364.6,232.9 367.6,231.7 370.6,230.4 373.7,229.2 376.7,228.0 379.7,226.9 382.7,225.7 385.7,224.6 388.8,223.5 391.8,222.4 394.8,221.3 397.8,220.2 400.8,219.2 403.8,218.2 406.9,217.1 409.9,216.1 412.9,215.2 415.9,214.2 418.9,213.2 422.0,212.3 425.0,211.4 428.0,210.4 431.0,209.5 434.0,208.7 437.1,207.8 440.1,206.9 443.1,206.1 446.1,205.2 449.1,204.4 452.2,203.6 455.2,202.7 458.2,201.9 461.2,201.2 464.2,200.4 467.2,199.6 470.3,198.8 473.3,198.1 476.3,197.3 479.3,196.6 482.3,195.9 485.4,195.2 488.4,194.5 491.4,193.8 494.4,193.1 497.4,192.4 500.5,191.7 503.5,191.0 506.5,190.4 509.5,189.7 512.5,189.1 515.5,188.4 518.6,187.8 521.6,187.2 524.6,186.6 527.6,185.9 530.6,185.3 533.7,184.7 536.7,184.1 539.7,183.5 542.7,183.0 545.7,182.4 548.8,181.8 551.8,181.3 554.8,180.7 557.8,180.1 560.8,179.6 563.8,179.1 566.9,178.5 569.9,178.0 572.9,177.5 575.9,176.9 578.9,176.4 582.0,175.9 585.0,175.4 588.0,174.9 591.0,174.4 594.0,173.9 597.1,173.4 600.1,172.9 603.1,172.4 606.1,172.0 609.1,171.5 612.2,171.0 615.2,170.6 618.2,170.1 621.2,169.7 624.2,169.2 627.2,168.8 630.3,168.3 633.3,167.9 636.3,167.4 639.3,167.0 642.3,166.6 645.4,166.1 648.4,165.7 651.4,165.3 654.4,164.9 657.4,164.5 660.5,164.1 663.5,163.7 666.5,163.3 669.5,162.9 672.5,162.5 675.5,162.1 678.6,161.7 681.6,161.3 684.6,160.9 687.6,160.5 690.6,160.2" fill="none" stroke="#E69F00" stroke-width="2.0" stroke-dasharray="2 3"/><polyline points="210.6,292.7 213.7,288.8 216.7,285.7 219.7,283.1 222.7,280.8 225.7,278.8 228.8,276.9 231.8,275.1 234.8,273.4 237.8,271.8 240.8,270.3 243.8,268.9 246.9,267.5 249.9,266.2 252.9,264.9 255.9,263.7 258.9,262.5 262.0,261.3 265.0,260.2 268.0,259.1 271.0,258.0 274.0,256.9 277.1,255.9 280.1,254.9 283.1,253.9 286.1,252.9 289.1,252.0 292.2,251.1 295.2,250.2 298.2,249.3 301.2,248.4 304.2,247.5 307.2,246.6 310.3,245.8 313.3,245.0 316.3,244.1 319.3,243.3 322.3,242.5 325.4,241.8 328.4,241.0 331.4,240.2 334.4,239.4 337.4,238.7 340.5,238.0 343.5,237.2 346.5,236.5 349.5,235.8 352.5,235.1 355.5,234.4 358.6,233.7 361.6,233.0 364.6,232.3 367.6,231.6 370.6,231.0 373.7,230.3 376.7,229.6 379.7,229.0 382.7,228.3 385.7,227.7 388.8,227.1 391.8,226.4 394.8,225.8 397.8,225.2 400.8,224.6 403.8,224.0 406.9,223.4 409.9,222.8 412.9,222.2 415.9,221.6 418.9,221.0 422.0,220.4 425.0,219.8 428.0,219.3 431.0,218.7 434.0,218.1 437.1,217.6 440.1,217.0 443.1,216.5 446.1,215.9 449.1,215.4 452.2,214.8 455.2,214.3 458.2,213.7 461.2,213.2 464.2,212.7 467.2,212.1 470.3,211.6 473.3,211.1 476.3,210.6 479.3,210.0 482.3,209.5 485.4,209.0 488.4,208.5 491.4,208.0 494.4,207.5 497.4,207.0 500.5,206.5 503.5,206.0 506.5,205.5 509.5,205.0 512.5,204.5 515.5,204.1 518.6,203.6 521.6,203.1 524.6,202.6 527.6,202.1 530.6,201.7 533.7,201.2 536.7,200.7 539.7,200.2 542.7,199.8 545.7,199.3 548.8,198.9 551.8,198.4 554.8,197.9 557.8,197.5 560.8,197.0 563.8,196.6 566.9,196.1 569.9,195.7 572.9,195.2 575.9,194.8 578.9,194.4 582.0,193.9 585.0,193.5 588.0,193.0 591.0,192.6 594.0,192.2 597.1,191.7 600.1,191.3 603.1,190.9 606.1,190.5 609.1,190.0 612.2,189.6 615.2,189.2 618.2,188.8 621.2,188.3 624.2,187.9 627.2,187.5 630.3,187.1 633.3,186.7 636.3,186.3 639.3,185.9 642.3,185.5 645.4,185.0 648.4,184.6 651.4,184.2 654.4,183.8 657.4,183.4 660.5,183.0 663.5,182.6 666.5,182.2 669.5,181.8 672.5,181.4 675.5,181.1 678.6,180.7 681.6,180.3 684.6,179.9 687.6,179.5 690.6,179.1" fill="none" stroke="#7A4EAB" stroke-width="2.0" stroke-dasharray="7 3 2 3"/><line x1="210.64" y1="103" x2="690.64" y2="103" stroke="#444" stroke-width="1.2"/><line x1="210.64" y1="98" x2="210.64" y2="108" stroke="#444" stroke-width="1.2"/><line x1="690.64" y1="98" x2="690.64" y2="108" stroke="#444" stroke-width="1.2"/><text x="450.64" y="124" text-anchor="middle" class="small">declared fit population: 600-5000 cm-1</text><line x1="262.95" y1="292.83" x2="320.95" y2="250.83" stroke="#8a6d00" stroke-width="1"/><text x="324.95" y="245.83" class="small" fill="#6f5700">source-pixel reversal</text><text x="324.95" y="261.83" class="small" fill="#6f5700">influence audited; no physical attribution</text><rect x="892" y="92" width="285" height="350" rx="6" fill="#ffffff" stroke="#c8c8c8"/><text x="910" y="120" class="legend-title">Observation coordinates</text><line x1="910" y1="145" x2="952" y2="145" stroke="#9a9a9a" stroke-width="1.2"/><circle cx="931" cy="145" r="2" fill="#9a9a9a"/><text x="963" y="150" class="small">reconstructed source, outside fit</text><line x1="910" y1="172" x2="952" y2="172" stroke="#9a9a9a" stroke-width="1.2"/><circle cx="931" cy="172" r="2.25" fill="#111"/><text x="963" y="177" class="small">reconstructed source, used in fit</text><rect x="910" y="193" width="42" height="12" fill="#F0E442" fill-opacity="0.30"/><text x="963" y="204" class="small">raw pixel-center reversal</text><text x="910" y="238" class="legend-title">Fitted observation operators</text><line x1="910" y1="266" x2="952" y2="266" stroke="#0072B2" stroke-width="2.0"/><text x="963" y="270" class="small">fractional power, free p</text><line x1="910" y1="294" x2="952" y2="294" stroke="#D55E00" stroke-width="2.0" stroke-dasharray="9 5"/><text x="963" y="298" class="small">fractional power, p=0.5</text><line x1="910" y1="322" x2="952" y2="322" stroke="#009E73" stroke-width="2.0" stroke-dasharray="3 4"/><text x="963" y="326" class="small">fractional power, p=0.7</text><line x1="910" y1="350" x2="952" y2="350" stroke="#CC79A7" stroke-width="2.0" stroke-dasharray="12 4 3 4"/><text x="963" y="354" class="small">source-panel p=0.872</text><line x1="910" y1="378" x2="952" y2="378" stroke="#E69F00" stroke-width="2.0" stroke-dasharray="2 3"/><text x="963" y="382" class="small">fractional power, p=1</text><line x1="910" y1="406" x2="952" y2="406" stroke="#7A4EAB" stroke-width="2.0" stroke-dasharray="7 3 2 3"/><text x="963" y="410" class="small">Chu 1994 Kane-region</text><text x="892" y="480" class="note">The gray/black coordinates are a reconstruction of the</text><text x="892" y="498" class="note">published bitmap, not native instrument-export data.</text><text x="892" y="528" class="note">Colored fits are displayed only over the declared fit</text><text x="892" y="546" class="note">population. No local feature is assigned a mechanism.</text></svg>
